<svg version="1.2" xmlns="http://www.w3.org/2000/svg" viewBox="0 0 150 150" width="150" height="150"><style></style><path  d="m85.3 79.7c2.7-7.9 2.7-16.5 0.2-24-0.3-1-1.9-0.6-1.8 0.4 0.7 7.6-0.6 15-3.7 21.6-1.4 3.3-3.5 6.3-5.8 9-2.2 2.8-4.9 5.1-7.8 7.2-7.1 5-15.9 7.4-24.5 6.7-2-0.3-3.9 1.1-4.3 3-0.4 1.9 1.3 3.7 3.8 4 10.2 0.8 20.7-2 29.1-8 3.4-2.4 6.6-5.3 9-8.7 2.4-3.5 4.5-7.2 5.8-11.2z"/><path fill-rule="evenodd" d="m145.7 124.1c-9.5 1.8-18.9 3.8-28.4 5.7h0.1c3.3 1.7 6.1 4.2 8.6 7.4 0.2 0.2-0.5 1.6-0.8 1.6-4.1-0.1-7.7-1-11-2.7l-6-3.1c-0.3-0.2-0.3-0.7-0.1-1.5-0.8 0.2-1.6 0.4-2.5 0.5-13.5 2.4-27.2 4-40.9 4.9-16.7 1.1-33.4 1.6-50.1 2-3.9 0.1-7.2-1.4-7.2-3.3 0-2 3.1-3.6 7.1-3.7 15.5-0.3 31.1-0.8 46.6-1.8-0.8-1.6-1.4-3.3-1.7-5l-1.2-5.9c-2.5 0-4.9-0.1-7.4-0.5-2.4-0.4-4.7-0.9-7-1.6-2.3-0.7-4.4-1.5-6.5-2.4-4.2-1.8-8.4-3.8-12.3-6.2-3.9-2.4-7.7-5-11.2-7.9-3.5-2.9-6.8-6-10-9.1-0.9-0.8-1.1-1.5-0.8-1.8-0.1-2 3.4-3.8 7.7-4.8 9.2-2.1 17.9-6.3 25.1-12.3 1.9-1.5 3.6-3.1 5.2-4.8 1.7-1.8 3.4-3.6 5-5.4 3.3-3.7 6.5-7.4 9.6-11.2 2.6-3.1 5.1-6.3 7.5-9.5l7.4-9.7 7.4-9.6c1.3-1.6 2.4-3.2 4-5 1.6-1.7 3.4-3.2 5.3-4.4 3.9-2.4 8.4-3.8 12.9-3.9 4.5-0.2 9 0.9 12.9 3 1.9 1.1 3.7 2.4 5.3 3.9 1.5 1.4 3 3 4.3 4.6q4.1 4.9 6.3 10.8c0.4 1 0.2 1.6-0.2 1.8-0.3 0.9-1.5 1.5-2.9 2-1.4 0.5-3.1 1.1-4.9 1.9-0.9 0.5-1.7 1-2.5 1.7l-1.1 1.1c-0.4 0.5-0.8 0.9-1.1 1.4-1.3 1.8-2.3 4-2.8 6.2-0.1 0.6-0.2 1.1-0.3 1.7l-0.1 0.9-0.1 1-1.6 16.4c-0.2 1.4-0.3 2.9-0.6 4.3-0.4 2.9-1.2 5.7-2.1 8.5-1.9 5.5-4.6 10.8-8 15.5-5.6 7.8-13.1 14.1-21.7 18.3-1.2 0.6-2.3 1.1-3.5 1.6l1.3 5.9c0.5 2.4 0.7 4.9 0.6 7.4 9.2-0.8 18.4-1.6 27.6-2.6 7.1-0.8 14.2-1.7 21.3-2.4-0.2-0.2-0.3-0.4-0.5-0.6-1.3-1.5-2-3-1.6-3.3l4.9-4.2c2.6-2.3 5.8-3.9 9.6-4.9 0.3 0 1.3 1.2 1.2 1.4-1.5 3.6-3.5 6.6-6.2 8.9l-2.6 2.3c4.9-0.5 9.7-0.9 14.6-1.2 1.7-0.1 1.9 1.4 0.1 1.7zm-69.7-15.7c7.5-3.9 14.1-9.5 19-16.4 3-4.2 5.4-8.8 7-13.7 0.8-2.5 1.5-5 1.9-7.5 0.2-1.2 0.4-2.5 0.5-3.8l1.6-16.4 0.1-1 0.1-1.2c0.1-0.8 0.2-1.6 0.4-2.4 0.7-3.1 2-6.1 3.9-8.7 0.5-0.7 1-1.3 1.5-1.9l0.8-0.9q0.5-0.5 0.9-0.9c1.3-1.1 2.7-2.1 4.3-2.8 3-1.4 6.2-1.3 8.1-0.5h0.1c-1.7-2.9-3.6-5.5-5.9-7.8-1.4-1.4-2.8-2.6-4.4-3.9-1.5-1.2-3.1-2.2-4.8-2.9-6.8-3.1-15-2.2-20.8 2-1.4 1-2.8 2.2-3.9 3.6-1 1.2-2.2 3.1-3.4 4.7l-7.1 10-7.2 9.9c-2.5 3.3-5 6.6-7.6 9.8-3.1 3.9-6.4 7.8-9.8 11.5-1.7 1.8-3.3 3.7-5.1 5.5-1.9 1.9-3.8 3.8-5.8 5.4-8.1 6.7-17.8 11.4-28 13.7-1.7 0.4-3.4 0.5-4.8 0.4 2.6 2.1 5.3 4.2 8.1 6.1 3.7 2.5 7.5 4.7 11.4 6.7 3.9 2 7.9 3.7 12.1 5.1 2 0.7 4.2 1.4 6.2 1.9 2 0.5 4.1 0.9 6.2 1.1 8.4 0.8 16.9-0.9 24.4-4.7zm-10.6 10.2l1 5.1c0.3 2 0.4 4 0.3 6.1 1.8-0.1 3.5-0.3 5.3-0.4-1-2.1-1.7-4.2-2.2-6.3l-1.1-5.2c-1.1 0.3-2.2 0.5-3.3 0.7z"/></svg>