<svg xmlns="http://www.w3.org/2000/svg" width="814.326" height="274.931" viewBox="0 0 814.326 274.931">
  <g id="Group_14182" data-name="Group 14182" transform="translate(-304 -675.239)">
    <path id="Path_5774" data-name="Path 5774" d="M3.818,277.643V256.233l25.63-4.22V65.567L4.131,60.723V39.781H53.673q7.814,0,14.222-.313t12.19-.7q5.782-.391,11.487-.7t12.112-.313q44.853,0,65.8,12.971T190.42,91.51a67.048,67.048,0,0,1-3.829,23.442,55.128,55.128,0,0,1-10.549,17.816,53.784,53.784,0,0,1-16.019,12.19,68.143,68.143,0,0,1-20.239,6.408,92.2,92.2,0,0,1,26.412,3.985,66.9,66.9,0,0,1,21.489,10.94,51.841,51.841,0,0,1,14.378,17.191,48.6,48.6,0,0,1,5.235,22.739,83.907,83.907,0,0,1-4.532,27.428,56.391,56.391,0,0,1-15.706,23.442q-11.174,10.237-30.006,16.332t-47.432,6.1q-6.251,0-12.112-.313t-12.424-.625q-6.564-.313-14.222-.625t-17.816-.313ZM78.834,60.41v82.2q2.188.313,5.782.547t7.423.313q3.829.078,7.58.078h6.408a42.074,42.074,0,0,0,16.488-2.891,26.385,26.385,0,0,0,11.018-8.517,35.389,35.389,0,0,0,6.017-13.987,92.516,92.516,0,0,0,1.8-19.3,66.513,66.513,0,0,0-2.11-17.738,28.226,28.226,0,0,0-6.955-12.5,29.692,29.692,0,0,0-12.815-7.345,67.316,67.316,0,0,0-19.379-2.422,123.412,123.412,0,0,0-12.737.625Q81.335,60.1,78.834,60.41Zm0,105.178v89.55a14.918,14.918,0,0,0,4.22,1.328q2.813.547,6.173.86t7.111.469q3.751.156,7.033.156,14.065,0,23.911-3.2a41.144,41.144,0,0,0,16.1-9.221,35.639,35.639,0,0,0,9.143-14.769,63.14,63.14,0,0,0,2.891-19.848q0-12.5-2.735-21.254a32.083,32.083,0,0,0-8.6-14.222,35.128,35.128,0,0,0-15-7.97,83.38,83.38,0,0,0-21.8-2.5h-6.955q-4.142,0-8.361.078t-7.814.234Q80.553,165.432,78.834,165.588ZM220.551,277.643V256.7l22.817-2.969V133.394l-21.1-6.72V103.232l57.356-7.658h.781l11.409,6.72V253.576l22.661,3.126v20.942ZM262.123,69.162a22.589,22.589,0,0,1-9.768-2.032,21.408,21.408,0,0,1-7.189-5.392,22.75,22.75,0,0,1-4.376-7.97A31.673,31.673,0,0,1,239.305,44a39.25,39.25,0,0,1,1.641-11.487,26.311,26.311,0,0,1,5.079-9.455,24.357,24.357,0,0,1,8.517-6.408,27.894,27.894,0,0,1,11.8-2.344h.156a26.313,26.313,0,0,1,11.018,2.11,23,23,0,0,1,7.736,5.626,22.543,22.543,0,0,1,4.61,8.049,30.427,30.427,0,0,1,1.485,9.533,38.128,38.128,0,0,1-1.719,11.643,25.85,25.85,0,0,1-5.235,9.377,23.9,23.9,0,0,1-9.064,6.251,34.378,34.378,0,0,1-13.05,2.266Zm66.233,208.481V256.7l22.5-2.969V133.394l-21.254-6.564v-23.6l53.449-7.658h.938l8.283,6.72v12.971l-.156,24.38h.625a69.264,69.264,0,0,1,6.8-12.581,86.81,86.81,0,0,1,12.19-14.691,73.415,73.415,0,0,1,16.722-12.19A42.746,42.746,0,0,1,449.006,95.1a53.085,53.085,0,0,1,7.423.391,22.774,22.774,0,0,1,4.3,1.016v54.074q-1.719-1.25-8.986-2.735a87.391,87.391,0,0,0-17.269-1.485,96.279,96.279,0,0,0-10.94.625q-5.47.625-10.237,1.641a59.919,59.919,0,0,0-8.517,2.422A27.192,27.192,0,0,0,399,153.867v99.708l38.914,3.751v20.317Zm211.419,3.438a69.863,69.863,0,0,1-27.115-5.235A58.077,58.077,0,0,1,490.7,259.671q-9.377-10.94-14.691-27.584T470.7,192.782a117.145,117.145,0,0,1,6.329-39.305,88.445,88.445,0,0,1,18.285-30.866,83.006,83.006,0,0,1,29.147-20.239Q541.65,95.1,563.373,95.1a126.405,126.405,0,0,1,12.737.625,101.547,101.547,0,0,1,11.8,1.875V44.469l-28.6-4.845V21.808l66.108-6.72h.781l9.69,7.345V255.92h17.347v19.692q-7.814,1.719-17.816,3.673a114.3,114.3,0,0,1-21.88,1.953q-9.533,0-14.847-4.22T593.38,261.7v-6.1a66.911,66.911,0,0,1-9.3,9.611,63.675,63.675,0,0,1-12.19,8.127,71.871,71.871,0,0,1-14.847,5.626A67.9,67.9,0,0,1,539.775,281.081Zm19.848-28.287a38.435,38.435,0,0,0,16.957-3.594,34.7,34.7,0,0,0,11.331-8.127V123.236q-2.657-2.813-8.752-5a43.111,43.111,0,0,0-14.534-2.188,36.425,36.425,0,0,0-15.941,3.595,33.61,33.61,0,0,0-13.128,11.877q-5.626,8.283-8.986,21.958T522.9,187.155q-.313,17.5,2.188,29.928t7.267,20.395a30.242,30.242,0,0,0,11.721,11.643A32.78,32.78,0,0,0,559.623,252.794Zm112.961,14.847V223.726H701.34l8.127,24.38a17.134,17.134,0,0,0,4.3,4.063,32.675,32.675,0,0,0,6.876,3.594,54.215,54.215,0,0,0,8.986,2.579,52.5,52.5,0,0,0,10.471,1.016,36.326,36.326,0,0,0,12.737-1.875,22.763,22.763,0,0,0,7.892-4.767,15.1,15.1,0,0,0,4.063-6.564,24.864,24.864,0,0,0,1.094-7.111,19.158,19.158,0,0,0-3.36-11.33,33.982,33.982,0,0,0-9.533-8.752,101.048,101.048,0,0,0-14.925-7.736q-8.752-3.751-19.379-8.127a124.55,124.55,0,0,1-19.379-9.768A67.771,67.771,0,0,1,684.7,181.217a48.343,48.343,0,0,1-12.581-33.6A45.166,45.166,0,0,1,690.4,110.655a68.689,68.689,0,0,1,22.5-10.94q13.44-3.985,31.1-3.985a120.632,120.632,0,0,1,18.363,1.25q8.048,1.25,14.612,2.891t12.034,3.438a79.84,79.84,0,0,0,10.627,2.735v43.134l-27.193-.469L765.1,127.924q-2.188-3.594-8.283-6.955t-15.472-3.516a38.305,38.305,0,0,0-11.8,1.563,20.666,20.666,0,0,0-7.658,4.22,15.74,15.74,0,0,0-4.142,5.861,17.712,17.712,0,0,0-1.25,6.486q0,8.127,4.22,13.362a36.193,36.193,0,0,0,10.627,8.83,91.815,91.815,0,0,0,14.065,6.329q7.658,2.735,14.534,5.861,10.315,4.532,19.692,9.611a81.625,81.625,0,0,1,16.644,11.8,52.016,52.016,0,0,1,11.565,15.55q4.3,8.83,4.3,21.02a49.9,49.9,0,0,1-4.454,21.1,46.232,46.232,0,0,1-13.44,16.879q-8.986,7.189-22.5,11.252T740.1,281.238a136.807,136.807,0,0,1-22.583-1.719q-10.237-1.719-18.6-3.985T683.993,271A110.033,110.033,0,0,0,672.584,267.641Z" transform="translate(306.182 660.932)" fill="#fff"/>
    <path id="Path_5736" data-name="Path 5736" d="M3.818,277.643V256.233l25.63-4.22V65.567L4.131,60.723V39.781H53.673q7.814,0,14.222-.313t12.19-.7q5.782-.391,11.487-.7t12.112-.313q44.853,0,65.8,12.971T190.42,91.51a67.048,67.048,0,0,1-3.829,23.442,55.128,55.128,0,0,1-10.549,17.816,53.784,53.784,0,0,1-16.019,12.19,68.143,68.143,0,0,1-20.239,6.408,92.2,92.2,0,0,1,26.412,3.985,66.9,66.9,0,0,1,21.489,10.94,51.841,51.841,0,0,1,14.378,17.191,48.6,48.6,0,0,1,5.235,22.739,83.907,83.907,0,0,1-4.532,27.428,56.391,56.391,0,0,1-15.706,23.442q-11.174,10.237-30.006,16.332t-47.432,6.1q-6.251,0-12.112-.313t-12.424-.625q-6.564-.313-14.222-.625t-17.816-.313ZM78.834,60.41v82.2q2.188.313,5.782.547t7.423.313q3.829.078,7.58.078h6.408a42.074,42.074,0,0,0,16.488-2.891,26.385,26.385,0,0,0,11.018-8.517,35.389,35.389,0,0,0,6.017-13.987,92.516,92.516,0,0,0,1.8-19.3,66.513,66.513,0,0,0-2.11-17.738,28.226,28.226,0,0,0-6.955-12.5,29.692,29.692,0,0,0-12.815-7.345,67.316,67.316,0,0,0-19.379-2.422,123.412,123.412,0,0,0-12.737.625Q81.335,60.1,78.834,60.41Zm0,105.178v89.55a14.918,14.918,0,0,0,4.22,1.328q2.813.547,6.173.86t7.111.469q3.751.156,7.033.156,14.065,0,23.911-3.2a41.144,41.144,0,0,0,16.1-9.221,35.639,35.639,0,0,0,9.143-14.769,63.14,63.14,0,0,0,2.891-19.848q0-12.5-2.735-21.254a32.083,32.083,0,0,0-8.6-14.222,35.128,35.128,0,0,0-15-7.97,83.38,83.38,0,0,0-21.8-2.5h-6.955q-4.142,0-8.361.078t-7.814.234Q80.553,165.432,78.834,165.588ZM220.551,277.643V256.7l22.817-2.969V133.394l-21.1-6.72V103.232l57.356-7.658h.781l11.409,6.72V253.576l22.661,3.126v20.942ZM262.123,69.162a22.589,22.589,0,0,1-9.768-2.032,21.408,21.408,0,0,1-7.189-5.392,22.75,22.75,0,0,1-4.376-7.97A31.673,31.673,0,0,1,239.305,44a39.25,39.25,0,0,1,1.641-11.487,26.311,26.311,0,0,1,5.079-9.455,24.357,24.357,0,0,1,8.517-6.408,27.894,27.894,0,0,1,11.8-2.344h.156a26.313,26.313,0,0,1,11.018,2.11,23,23,0,0,1,7.736,5.626,22.543,22.543,0,0,1,4.61,8.049,30.427,30.427,0,0,1,1.485,9.533,38.128,38.128,0,0,1-1.719,11.643,25.85,25.85,0,0,1-5.235,9.377,23.9,23.9,0,0,1-9.064,6.251,34.378,34.378,0,0,1-13.05,2.266Zm66.233,208.481V256.7l22.5-2.969V133.394l-21.254-6.564v-23.6l53.449-7.658h.938l8.283,6.72v12.971l-.156,24.38h.625a69.264,69.264,0,0,1,6.8-12.581,86.81,86.81,0,0,1,12.19-14.691,73.415,73.415,0,0,1,16.722-12.19A42.746,42.746,0,0,1,449.006,95.1a53.085,53.085,0,0,1,7.423.391,22.774,22.774,0,0,1,4.3,1.016v54.074q-1.719-1.25-8.986-2.735a87.391,87.391,0,0,0-17.269-1.485,96.279,96.279,0,0,0-10.94.625q-5.47.625-10.237,1.641a59.919,59.919,0,0,0-8.517,2.422A27.192,27.192,0,0,0,399,153.867v99.708l38.914,3.751v20.317Zm211.419,3.438a69.863,69.863,0,0,1-27.115-5.235A58.077,58.077,0,0,1,490.7,259.671q-9.377-10.94-14.691-27.584T470.7,192.782a117.145,117.145,0,0,1,6.329-39.305,88.445,88.445,0,0,1,18.285-30.866,83.006,83.006,0,0,1,29.147-20.239Q541.65,95.1,563.373,95.1a126.405,126.405,0,0,1,12.737.625,101.547,101.547,0,0,1,11.8,1.875V44.469l-28.6-4.845V21.808l66.108-6.72h.781l9.69,7.345V255.92h17.347v19.692q-7.814,1.719-17.816,3.673a114.3,114.3,0,0,1-21.88,1.953q-9.533,0-14.847-4.22T593.38,261.7v-6.1a66.911,66.911,0,0,1-9.3,9.611,63.675,63.675,0,0,1-12.19,8.127,71.871,71.871,0,0,1-14.847,5.626A67.9,67.9,0,0,1,539.775,281.081Zm19.848-28.287a38.435,38.435,0,0,0,16.957-3.594,34.7,34.7,0,0,0,11.331-8.127V123.236q-2.657-2.813-8.752-5a43.111,43.111,0,0,0-14.534-2.188,36.425,36.425,0,0,0-15.941,3.595,33.61,33.61,0,0,0-13.128,11.877q-5.626,8.283-8.986,21.958T522.9,187.155q-.313,17.5,2.188,29.928t7.267,20.395a30.242,30.242,0,0,0,11.721,11.643A32.78,32.78,0,0,0,559.623,252.794Zm112.961,14.847V223.726H701.34l8.127,24.38a17.134,17.134,0,0,0,4.3,4.063,32.675,32.675,0,0,0,6.876,3.594,54.215,54.215,0,0,0,8.986,2.579,52.5,52.5,0,0,0,10.471,1.016,36.326,36.326,0,0,0,12.737-1.875,22.763,22.763,0,0,0,7.892-4.767,15.1,15.1,0,0,0,4.063-6.564,24.864,24.864,0,0,0,1.094-7.111,19.158,19.158,0,0,0-3.36-11.33,33.982,33.982,0,0,0-9.533-8.752,101.048,101.048,0,0,0-14.925-7.736q-8.752-3.751-19.379-8.127a124.55,124.55,0,0,1-19.379-9.768A67.771,67.771,0,0,1,684.7,181.217a48.343,48.343,0,0,1-12.581-33.6A45.166,45.166,0,0,1,690.4,110.655a68.689,68.689,0,0,1,22.5-10.94q13.44-3.985,31.1-3.985a120.632,120.632,0,0,1,18.363,1.25q8.048,1.25,14.612,2.891t12.034,3.438a79.84,79.84,0,0,0,10.627,2.735v43.134l-27.193-.469L765.1,127.924q-2.188-3.594-8.283-6.955t-15.472-3.516a38.305,38.305,0,0,0-11.8,1.563,20.666,20.666,0,0,0-7.658,4.22,15.74,15.74,0,0,0-4.142,5.861,17.712,17.712,0,0,0-1.25,6.486q0,8.127,4.22,13.362a36.193,36.193,0,0,0,10.627,8.83,91.815,91.815,0,0,0,14.065,6.329q7.658,2.735,14.534,5.861,10.315,4.532,19.692,9.611a81.625,81.625,0,0,1,16.644,11.8,52.016,52.016,0,0,1,11.565,15.55q4.3,8.83,4.3,21.02a49.9,49.9,0,0,1-4.454,21.1,46.232,46.232,0,0,1-13.44,16.879q-8.986,7.189-22.5,11.252T740.1,281.238a136.807,136.807,0,0,1-22.583-1.719q-10.237-1.719-18.6-3.985T683.993,271A110.033,110.033,0,0,0,672.584,267.641Z" transform="translate(300.182 668.932)" fill="red"/>
  </g>
</svg>
