<svg xmlns="http://www.w3.org/2000/svg" width="1326" height="361.447" viewBox="0 0 1326 361.447">
  <g id="Group_14183" data-name="Group 14183" transform="translate(-291 -429.5)">
    <g id="Group_14048" data-name="Group 14048" transform="translate(-2652.5 1186.154)">
      <path id="Path_5727" data-name="Path 5727" d="M3385.385-723.846v-32.308H3420" fill="none" stroke="#000" stroke-width="1"/>
      <path id="Path_5730" data-name="Path 5730" d="M3385.385-756.154v32.308H3420" transform="translate(0 291)" fill="none" stroke="#000" stroke-width="1"/>
      <path id="Path_5728" data-name="Path 5728" d="M3420-723.846v-32.308h-34.615" transform="translate(419)" fill="none" stroke="#000" stroke-width="1"/>
      <path id="Path_5729" data-name="Path 5729" d="M3420-756.154v32.308h-34.615" transform="translate(419 291)" fill="none" stroke="#000" stroke-width="1"/>
      <path id="Path_5731" data-name="Path 5731" d="M3600.018-756.154l14.3,14.3,14.3-14.3" fill="none" stroke="#000" stroke-width="1"/>
      <path id="Path_5732" data-name="Path 5732" d="M3600.018-756.154l14.3,14.3,14.3-14.3" transform="translate(7228.629 -1178.011) rotate(180)" fill="none" stroke="#000" stroke-width="1"/>
      <path id="Path_5733" data-name="Path 5733" d="M3600.018-756.154l14.3,14.3,14.3-14.3" transform="translate(7228.629 -1166.011) rotate(180)" fill="none" stroke="#000" stroke-width="1"/>
      <path id="Path_5734" data-name="Path 5734" d="M3600.018-756.154l14.3,14.3,14.3-14.3" transform="translate(7228.629 -1151.714) rotate(180)" fill="none" stroke="#000" stroke-width="1"/>
      <line id="Line_261" data-name="Line 261" y2="28" transform="translate(3143.5 -613.5)" fill="none" stroke="#000" stroke-width="1"/>
      <line id="Line_277" data-name="Line 277" y2="8" transform="translate(3181.5 -603.5)" fill="none" stroke="#000" stroke-width="1"/>
      <line id="Line_278" data-name="Line 278" y2="8" transform="translate(3261.5 -603.5)" fill="none" stroke="#000" stroke-width="1"/>
      <line id="Line_279" data-name="Line 279" y2="8" transform="translate(3337.5 -603.5)" fill="none" stroke="#000" stroke-width="1"/>
      <line id="Line_280" data-name="Line 280" y2="8" transform="translate(3415.5 -603.5)" fill="none" stroke="#000" stroke-width="1"/>
      <line id="Line_281" data-name="Line 281" y2="8" transform="translate(3495.5 -603.5)" fill="none" stroke="#000" stroke-width="1"/>
      <line id="Line_282" data-name="Line 282" y2="8" transform="translate(3810.5 -603.5)" fill="none" stroke="#000" stroke-width="1"/>
      <line id="Line_283" data-name="Line 283" y2="8" transform="translate(3888.5 -603.5)" fill="none" stroke="#000" stroke-width="1"/>
      <line id="Line_284" data-name="Line 284" y2="8" transform="translate(3964.5 -603.5)" fill="none" stroke="#000" stroke-width="1"/>
      <line id="Line_285" data-name="Line 285" y2="8" transform="translate(4044.5 -603.5)" fill="none" stroke="#000" stroke-width="1"/>
      <line id="Line_262" data-name="Line 262" y2="28" transform="translate(3221.5 -613.5)" fill="none" stroke="#000" stroke-width="1"/>
      <line id="Line_263" data-name="Line 263" y2="28" transform="translate(3299.5 -613.5)" fill="none" stroke="#000" stroke-width="1"/>
      <line id="Line_264" data-name="Line 264" y2="28" transform="translate(3377.5 -613.5)" fill="none" stroke="#000" stroke-width="1"/>
      <line id="Line_265" data-name="Line 265" y2="28" transform="translate(3455.5 -613.5)" fill="none" stroke="#000" stroke-width="1"/>
      <line id="Line_266" data-name="Line 266" y2="28" transform="translate(3533.5 -613.5)" fill="none" stroke="#000" stroke-width="1"/>
      <line id="Line_273" data-name="Line 273" y2="17" transform="translate(3611.5 -622.5)" fill="none" stroke="#000" stroke-width="1"/>
      <line id="Line_276" data-name="Line 276" y2="17" transform="translate(3584.5 -595.5) rotate(-90)" fill="none" stroke="#000" stroke-width="1"/>
      <line id="Line_274" data-name="Line 274" y2="17" transform="translate(3611.5 -585.5)" fill="none" stroke="#000" stroke-width="1"/>
      <line id="Line_275" data-name="Line 275" y2="17" transform="translate(3621.5 -595.5) rotate(-90)" fill="none" stroke="#000" stroke-width="1"/>
      <line id="Line_267" data-name="Line 267" y2="28" transform="translate(3692.5 -613.5)" fill="none" stroke="#000" stroke-width="1"/>
      <line id="Line_268" data-name="Line 268" y2="28" transform="translate(3770.5 -613.5)" fill="none" stroke="#000" stroke-width="1"/>
      <line id="Line_269" data-name="Line 269" y2="28" transform="translate(3848.5 -613.5)" fill="none" stroke="#000" stroke-width="1"/>
      <line id="Line_270" data-name="Line 270" y2="28" transform="translate(3926.5 -613.5)" fill="none" stroke="#000" stroke-width="1"/>
      <line id="Line_271" data-name="Line 271" y2="28" transform="translate(4004.5 -613.5)" fill="none" stroke="#000" stroke-width="1"/>
      <line id="Line_272" data-name="Line 272" y2="28" transform="translate(4082.5 -613.5)" fill="none" stroke="#000" stroke-width="1"/>
    </g>
    <g id="Group_14049" data-name="Group 14049">
      <line id="Line_306" data-name="Line 306" x2="15" transform="translate(1571 450.5)" fill="none" stroke="#000" stroke-width="1"/>
      <line id="Line_304" data-name="Line 304" x2="15" transform="translate(1583 482.5)" fill="none" stroke="#000" stroke-width="1"/>
      <line id="Line_303" data-name="Line 303" x2="15" transform="translate(1591 514.5)" fill="none" stroke="#000" stroke-width="1"/>
      <line id="Line_300" data-name="Line 300" x2="15" transform="translate(1599 546.5)" fill="none" stroke="#000" stroke-width="1"/>
      <line id="Line_297" data-name="Line 297" x2="15" transform="translate(1601 578.5)" fill="none" stroke="#000" stroke-width="1"/>
      <line id="Line_298" data-name="Line 298" x2="15" transform="translate(1602 610.5)" fill="none" stroke="#000" stroke-width="1"/>
      <line id="Line_299" data-name="Line 299" x2="15" transform="translate(1601 642.5)" fill="none" stroke="#000" stroke-width="1"/>
      <line id="Line_301" data-name="Line 301" x2="15" transform="translate(1596 674.5)" fill="none" stroke="#000" stroke-width="1"/>
      <line id="Line_302" data-name="Line 302" x2="15" transform="translate(1588.5 706.5)" fill="none" stroke="#000" stroke-width="1"/>
      <line id="Line_305" data-name="Line 305" x2="15" transform="translate(1578.75 738.5)" fill="none" stroke="#000" stroke-width="1"/>
      <line id="Line_307" data-name="Line 307" x2="15" transform="translate(1565.75 771.5)" fill="none" stroke="#000" stroke-width="1"/>
    </g>
    <g id="Group_14050" data-name="Group 14050" transform="translate(291 450.5)">
      <line id="Line_306-2" data-name="Line 306" x1="15" transform="translate(31)" fill="none" stroke="#000" stroke-width="1"/>
      <line id="Line_304-2" data-name="Line 304" x1="15" transform="translate(19 32)" fill="none" stroke="#000" stroke-width="1"/>
      <line id="Line_303-2" data-name="Line 303" x1="15" transform="translate(11 64)" fill="none" stroke="#000" stroke-width="1"/>
      <line id="Line_300-2" data-name="Line 300" x1="15" transform="translate(3 96)" fill="none" stroke="#000" stroke-width="1"/>
      <line id="Line_297-2" data-name="Line 297" x1="15" transform="translate(1 128)" fill="none" stroke="#000" stroke-width="1"/>
      <line id="Line_298-2" data-name="Line 298" x1="15" transform="translate(0 160)" fill="none" stroke="#000" stroke-width="1"/>
      <line id="Line_299-2" data-name="Line 299" x1="15" transform="translate(1 192)" fill="none" stroke="#000" stroke-width="1"/>
      <line id="Line_301-2" data-name="Line 301" x1="15" transform="translate(6 224)" fill="none" stroke="#000" stroke-width="1"/>
      <line id="Line_302-2" data-name="Line 302" x1="15" transform="translate(13.5 256)" fill="none" stroke="#000" stroke-width="1"/>
      <line id="Line_305-2" data-name="Line 305" x1="15" transform="translate(23.25 288)" fill="none" stroke="#000" stroke-width="1"/>
      <line id="Line_307-2" data-name="Line 307" x1="15" transform="translate(36.25 321)" fill="none" stroke="#000" stroke-width="1"/>
    </g>
  </g>
</svg>
