<svg xmlns="http://www.w3.org/2000/svg" width="27.857" height="35.47" viewBox="0 0 27.857 35.47">
  <g id="Group_14066" data-name="Group 14066" transform="translate(-468.22 -2905)">
    <g id="noun-location-6407597" transform="translate(468.22 2905)">
      <path id="Path_5758" data-name="Path 5758" d="M39.149,9A13.945,13.945,0,0,0,25.22,22.929c0,5.21,2.354,10.572,6.818,15.512a37.413,37.413,0,0,0,6.781,5.931.594.594,0,0,0,.33.1.58.58,0,0,0,.33-.1,37.414,37.414,0,0,0,6.781-5.931c4.457-4.934,6.818-10.3,6.818-15.512A13.945,13.945,0,0,0,39.149,9Z" transform="translate(-25.22 -9)" fill="red"/>
    </g>
    <path id="Path_5759" data-name="Path 5759" d="M59.855,47a9.079,9.079,0,0,0-7.32,3.684l-.385.515-.385-.515A9.079,9.079,0,0,0,44.445,47a1.445,1.445,0,0,0,0,2.889,6.266,6.266,0,0,1,6.26,6.26,1.445,1.445,0,1,0,2.889,0,6.266,6.266,0,0,1,6.26-6.26,1.445,1.445,0,1,0,0-2.889Z" transform="translate(429.999 2867.989)" fill="#fff"/>
  </g>
</svg>
