<svg xmlns="http://www.w3.org/2000/svg" width="1214.941" height="161.353" viewBox="0 0 1214.941 161.353">
  <path id="Path_5789" data-name="Path 5789" d="M5.493,354.959A47.314,47.314,0,0,1,8.9,336.465a42.188,42.188,0,0,1,8.972-13.66,38.567,38.567,0,0,1,27.1-11.353q10.034,0,17.139,3.406A31.6,31.6,0,0,1,73.755,324.2a39.187,39.187,0,0,1,6.665,13.916,66.155,66.155,0,0,1,2.124,17.065,47.791,47.791,0,0,1-3.406,18.6,41.979,41.979,0,0,1-8.936,13.66,37.5,37.5,0,0,1-12.634,8.386,38.558,38.558,0,0,1-14.5,2.856A39.18,39.18,0,0,1,26,395.279a31.929,31.929,0,0,1-11.682-9.338,38.837,38.837,0,0,1-6.7-13.916A66.154,66.154,0,0,1,5.493,354.959Zm38.452,34.717q10.474,0,15.417-8.276t4.944-24.829a86.041,86.041,0,0,0-1.1-14.136,40.828,40.828,0,0,0-3.516-11.462,20.747,20.747,0,0,0-6.262-7.69,15.357,15.357,0,0,0-9.338-2.82q-10.474,0-15.454,8.276t-4.98,24.829a82.679,82.679,0,0,0,1.135,14.1,42.166,42.166,0,0,0,3.552,11.462,20.683,20.683,0,0,0,6.262,7.727A15.357,15.357,0,0,0,43.945,389.676ZM91.538,397v-8.057l12.3-1.392V324.637H89.707v-7.251l14.136-3.516v-6.958a29.845,29.845,0,0,1,3.076-13.4,36.612,36.612,0,0,1,7.983-10.767A37.723,37.723,0,0,1,126,275.6a31.823,31.823,0,0,1,12.415-2.6,30.336,30.336,0,0,1,5.493.366,26.564,26.564,0,0,1,3.149.806v16.479a14.8,14.8,0,0,0-1.941-1.208A20.22,20.22,0,0,0,142,288.125a32.081,32.081,0,0,0-4.028-1.062,23.882,23.882,0,0,0-4.687-.439,26.61,26.61,0,0,0-5.493.513,8.838,8.838,0,0,0-4.138,2.051,9.722,9.722,0,0,0-2.637,4.285,23.074,23.074,0,0,0-.916,7.141l.073,13.257H140.1v10.767H120.176v62.988l15.674,1.318V397Zm103.608,0v-7.91l9.229-1.318V326.761l-10.254-3.223v-8.789l20.874-3h.366l3.516,2.93v5.713l-.073,3.149a35.906,35.906,0,0,1,5.969-4.285,58.079,58.079,0,0,1,7.617-3.735,59.414,59.414,0,0,1,8.276-2.673,33.92,33.92,0,0,1,8.02-1.025q8.13,0,13,2.637a17.071,17.071,0,0,1,7.434,8.276,37.719,37.719,0,0,1,5.6-3.7,62.314,62.314,0,0,1,7.581-3.552,63.663,63.663,0,0,1,8.35-2.637,33.576,33.576,0,0,1,7.837-1.025,30.947,30.947,0,0,1,11.829,1.941,15.637,15.637,0,0,1,7.324,6.116,28.182,28.182,0,0,1,3.735,10.767,101.178,101.178,0,0,1,1.062,15.82v41.309l10.693,1.318V397H297.1v-7.91l9.009-1.318V346.9a81.669,81.669,0,0,0-.586-10.474,19.466,19.466,0,0,0-2.344-7.434,11.2,11.2,0,0,0-4.871-4.468,18.911,18.911,0,0,0-8.167-1.5,23.116,23.116,0,0,0-4.834.549A44.644,44.644,0,0,0,280.181,325a39.878,39.878,0,0,0-4.907,2.051,31.4,31.4,0,0,0-4.1,2.417,88.491,88.491,0,0,1,1.392,17.139v41.162l10.62,1.318V397H246.343v-7.91l9.888-1.318V346.536a83.77,83.77,0,0,0-.549-10.254,20.94,20.94,0,0,0-2.124-7.324,10.176,10.176,0,0,0-4.5-4.395,17.462,17.462,0,0,0-7.764-1.465,32.825,32.825,0,0,0-10.84,1.941,36.628,36.628,0,0,0-9.741,5.017v57.715l10.034,1.318V397Zm144.565-21.973a21.567,21.567,0,0,1,1.978-9.412,23.581,23.581,0,0,1,5.42-7.288,32.372,32.372,0,0,1,8.093-5.347,56.589,56.589,0,0,1,10.034-3.589,81.243,81.243,0,0,1,11.206-2.051q5.823-.659,11.536-.806v-3.882a43.773,43.773,0,0,0-.732-8.679,13.418,13.418,0,0,0-2.527-5.786,9.987,9.987,0,0,0-4.8-3.223,24.756,24.756,0,0,0-7.617-.989,43.356,43.356,0,0,0-7.91.732,76.528,76.528,0,0,0-7.581,1.794q-3.625,1.062-6.665,2.271t-5.09,2.234h-.073l-3.3-7.031a28.706,28.706,0,0,1,4.907-3.369,61.913,61.913,0,0,1,8.313-3.955,82.664,82.664,0,0,1,10.327-3.3,45.022,45.022,0,0,1,11.023-1.392,46.276,46.276,0,0,1,13,1.575,19.014,19.014,0,0,1,8.606,5.054,20.134,20.134,0,0,1,4.724,9.009,54.835,54.835,0,0,1,1.428,13.513V388.87H413.1v7.1q-1.392.366-3.333.842t-4.065.879q-2.124.4-4.321.7a31.639,31.639,0,0,1-4.175.293,29.816,29.816,0,0,1-3.552-.183,4.728,4.728,0,0,1-2.454-.952,4.624,4.624,0,0,1-1.428-2.307,14.627,14.627,0,0,1-.476-4.175v-2.71q-.952.879-3.113,2.6a37.136,37.136,0,0,1-5.31,3.442,40.674,40.674,0,0,1-7.178,3,28.348,28.348,0,0,1-8.643,1.282,33.76,33.76,0,0,1-9.631-1.355,22.688,22.688,0,0,1-8.057-4.211,20.49,20.49,0,0,1-5.566-7.361A25.339,25.339,0,0,1,339.712,375.027Zm31.641,12.451a20.074,20.074,0,0,0,3.662-.4,36.478,36.478,0,0,0,4.395-1.135,33.524,33.524,0,0,0,4.5-1.831,28.362,28.362,0,0,0,4.065-2.417V354.739a59.261,59.261,0,0,0-14.685,1.538,28.4,28.4,0,0,0-9.412,4.065,14.635,14.635,0,0,0-4.98,5.75,16.1,16.1,0,0,0-1.465,6.738,19.188,19.188,0,0,0,1.062,6.812,11.98,11.98,0,0,0,2.93,4.541,10.958,10.958,0,0,0,4.431,2.527A19.027,19.027,0,0,0,371.353,387.479ZM421.875,397v-8.057l9.814-1.245V326.761l-10.254-3.223v-8.789l20.874-3h.366l3.589,2.93v5.713l-.146,3.149a35.906,35.906,0,0,1,5.969-4.285,59.124,59.124,0,0,1,7.581-3.735,57.393,57.393,0,0,1,8.276-2.673,34.648,34.648,0,0,1,8.13-1.025,30.94,30.94,0,0,1,11.938,1.978,15.694,15.694,0,0,1,7.361,6.226,28.411,28.411,0,0,1,3.7,10.8,103.986,103.986,0,0,1,1.025,15.784V387.7l10.84,1.245V397H474.1v-8.057l9.668-1.245V346.536a89.691,89.691,0,0,0-.513-10.254,20.452,20.452,0,0,0-2.087-7.324,10.176,10.176,0,0,0-4.5-4.395,17.264,17.264,0,0,0-7.69-1.465,32.837,32.837,0,0,0-11.169,2.014,38.092,38.092,0,0,0-9.778,5.09v57.5l10.327,1.245V397Zm109.043,37.354q-1.1,0-2.344-.073t-2.417-.22q-1.172-.146-2.124-.33a5.764,5.764,0,0,1-1.392-.4v-13.55a6.724,6.724,0,0,0,1.392.439q.952.22,2.161.4t2.527.256q1.318.073,2.49.073a24.109,24.109,0,0,0,5.164-.623,15.189,15.189,0,0,0,5.9-3,30.6,30.6,0,0,0,6.3-7.178A65.5,65.5,0,0,0,554.941,397h-9.229L518.32,323.611l-7.031-2.051v-7.91H548.2v7.91l-11.719,2.051,14.941,44.971,6.592,21.606,5.859-21.606,12.744-44.971-9.888-2.051v-7.91h30.615v7.91l-7.544,2.051q-5.713,18.091-9.851,31.421t-7.031,22.559q-2.893,9.229-4.651,14.612t-2.71,7.581a164.333,164.333,0,0,1-6.921,15.271,48.682,48.682,0,0,1-7.434,10.767,27.041,27.041,0,0,1-8.9,6.409A28.3,28.3,0,0,1,530.918,434.354ZM646.685,397v-8.057l12.3-1.392V324.637H644.854v-7.251l14.136-3.516v-6.958a29.845,29.845,0,0,1,3.076-13.4,36.612,36.612,0,0,1,7.983-10.767,37.723,37.723,0,0,1,11.1-7.141A31.823,31.823,0,0,1,693.56,273a30.336,30.336,0,0,1,5.493.366,26.564,26.564,0,0,1,3.149.806v16.479a14.8,14.8,0,0,0-1.941-1.208,20.22,20.22,0,0,0-3.113-1.318,32.081,32.081,0,0,0-4.028-1.062,23.882,23.882,0,0,0-4.687-.439,26.61,26.61,0,0,0-5.493.513,8.838,8.838,0,0,0-4.138,2.051,9.722,9.722,0,0,0-2.637,4.285,23.074,23.074,0,0,0-.916,7.141l.073,13.257h19.922v10.767H675.322v62.988L691,388.943V397Zm93.589,1.685a38.592,38.592,0,0,1-16.3-3.223,32.07,32.07,0,0,1-11.682-9.009,39.043,39.043,0,0,1-7.031-13.806,62.621,62.621,0,0,1-2.344-17.615,51.437,51.437,0,0,1,2.93-17.761,41.146,41.146,0,0,1,8.167-13.77,36.366,36.366,0,0,1,12.415-8.9,38.579,38.579,0,0,1,15.674-3.149q13.843,0,21.46,7.507t8.276,22.229q.073,4.761-.073,8.313a37.121,37.121,0,0,1-.732,6.262H720.352v.439a47.534,47.534,0,0,0,2.417,14.282,28.757,28.757,0,0,0,5.53,9.7,20.535,20.535,0,0,0,7.8,5.493,24.885,24.885,0,0,0,9.155,1.721,35.565,35.565,0,0,0,6.372-.586,48.782,48.782,0,0,0,6.189-1.538,36.869,36.869,0,0,0,5.42-2.2,25.733,25.733,0,0,0,4.065-2.49l3.076,7.178a28.464,28.464,0,0,1-5.383,4.1,43.407,43.407,0,0,1-7.251,3.479,55.823,55.823,0,0,1-8.459,2.417A44.763,44.763,0,0,1,740.273,398.685Zm-1.831-78.442a17.9,17.9,0,0,0-6.812,1.282,13.365,13.365,0,0,0-5.53,4.358,24.683,24.683,0,0,0-3.882,8.2,56.185,56.185,0,0,0-1.868,12.891h33.984q.146-1.465.183-3.076t.037-3a34.116,34.116,0,0,0-.879-7.837,20.043,20.043,0,0,0-2.783-6.592,14.018,14.018,0,0,0-4.944-4.541A15.309,15.309,0,0,0,738.442,320.242Zm41.733,54.785a21.567,21.567,0,0,1,1.978-9.412,23.581,23.581,0,0,1,5.42-7.288,32.372,32.372,0,0,1,8.093-5.347,56.589,56.589,0,0,1,10.034-3.589,81.243,81.243,0,0,1,11.206-2.051q5.823-.659,11.536-.806v-3.882a43.773,43.773,0,0,0-.732-8.679,13.418,13.418,0,0,0-2.527-5.786,9.987,9.987,0,0,0-4.8-3.223,24.756,24.756,0,0,0-7.617-.989,43.356,43.356,0,0,0-7.91.732,76.528,76.528,0,0,0-7.581,1.794q-3.625,1.062-6.665,2.271t-5.09,2.234h-.073l-3.3-7.031a28.706,28.706,0,0,1,4.907-3.369,61.913,61.913,0,0,1,8.313-3.955,82.664,82.664,0,0,1,10.327-3.3,45.022,45.022,0,0,1,11.023-1.392,46.276,46.276,0,0,1,13,1.575,19.014,19.014,0,0,1,8.606,5.054,20.134,20.134,0,0,1,4.724,9.009,54.835,54.835,0,0,1,1.428,13.513V388.87h9.082v7.1q-1.392.366-3.333.842t-4.065.879q-2.124.4-4.321.7a31.639,31.639,0,0,1-4.175.293,29.816,29.816,0,0,1-3.552-.183,4.728,4.728,0,0,1-2.454-.952,4.624,4.624,0,0,1-1.428-2.307,14.627,14.627,0,0,1-.476-4.175v-2.71q-.952.879-3.113,2.6a37.136,37.136,0,0,1-5.31,3.442,40.674,40.674,0,0,1-7.178,3,28.348,28.348,0,0,1-8.643,1.282,33.76,33.76,0,0,1-9.631-1.355,22.688,22.688,0,0,1-8.057-4.211,20.49,20.49,0,0,1-5.566-7.361A25.339,25.339,0,0,1,780.176,375.027Zm31.641,12.451a20.074,20.074,0,0,0,3.662-.4,36.478,36.478,0,0,0,4.395-1.135,33.524,33.524,0,0,0,4.5-1.831,28.362,28.362,0,0,0,4.065-2.417V354.739a59.261,59.261,0,0,0-14.685,1.538,28.4,28.4,0,0,0-9.412,4.065,14.635,14.635,0,0,0-4.98,5.75,16.1,16.1,0,0,0-1.465,6.738,19.188,19.188,0,0,0,1.062,6.812,11.98,11.98,0,0,0,2.93,4.541,10.958,10.958,0,0,0,4.431,2.527A19.027,19.027,0,0,0,811.816,387.479ZM870.4,381.4V324.271h-10.62v-6.885q2.271-.732,4.5-1.538a17.227,17.227,0,0,0,3.259-1.465,12.778,12.778,0,0,0,4.1-5.493q.586-1.318,1.465-3.479t1.721-4.431q.842-2.271,1.538-4.321t.989-3.223h9.375V313.65h24.536v10.62H886.729v43.8q0,6.519.183,10.181a14.938,14.938,0,0,0,1.025,5.42,3.7,3.7,0,0,0,2.527,2.161,20.759,20.759,0,0,0,4.614.4h.073a35.2,35.2,0,0,0,4.431-.293q2.307-.293,4.5-.7t4.028-.879a25.35,25.35,0,0,0,2.93-.916h.073l2.49,7.178a27.557,27.557,0,0,1-4.834,2.747,59.034,59.034,0,0,1-6.7,2.6,66.245,66.245,0,0,1-7.507,1.941,37.762,37.762,0,0,1-7.324.769h-.146a25.338,25.338,0,0,1-6.958-.879,12.634,12.634,0,0,1-5.237-2.893,13.081,13.081,0,0,1-3.333-5.347A24.8,24.8,0,0,1,870.4,381.4ZM919.38,397v-8.057l8.862-1.245V285.525l-12.012-1.318v-6.958l24.316-3.3h.366l3.589,2.563.073,33.765-.586,13.257a46.394,46.394,0,0,1,5.127-3.882A50.693,50.693,0,0,1,956,315.848a48.806,48.806,0,0,1,8.167-2.893,35.444,35.444,0,0,1,8.972-1.135,29.445,29.445,0,0,1,11.719,2.014,16.4,16.4,0,0,1,7.361,6.262,28.455,28.455,0,0,1,3.845,10.84,96.78,96.78,0,0,1,1.1,15.674V387.7l10.767,1.245V397H971.089v-7.91l9.741-1.318V346.536a83.77,83.77,0,0,0-.549-10.254,20.42,20.42,0,0,0-2.161-7.324,10.341,10.341,0,0,0-4.578-4.395,17.706,17.706,0,0,0-7.8-1.465,35.819,35.819,0,0,0-11.023,1.831,35.089,35.089,0,0,0-10.144,5.127V387.7l10.62,1.245V397Zm132.48,1.685a38.592,38.592,0,0,1-16.3-3.223,32.07,32.07,0,0,1-11.682-9.009,39.043,39.043,0,0,1-7.031-13.806,62.621,62.621,0,0,1-2.344-17.615,51.437,51.437,0,0,1,2.93-17.761,41.146,41.146,0,0,1,8.167-13.77,36.366,36.366,0,0,1,12.415-8.9,38.579,38.579,0,0,1,15.674-3.149q13.843,0,21.46,7.507t8.276,22.229q.073,4.761-.073,8.313a37.121,37.121,0,0,1-.732,6.262h-50.684v.439a47.534,47.534,0,0,0,2.417,14.282,28.757,28.757,0,0,0,5.53,9.7,20.535,20.535,0,0,0,7.8,5.493,24.885,24.885,0,0,0,9.155,1.721,35.565,35.565,0,0,0,6.372-.586,48.782,48.782,0,0,0,6.189-1.538,36.869,36.869,0,0,0,5.42-2.2,25.733,25.733,0,0,0,4.065-2.49l3.076,7.178a28.464,28.464,0,0,1-5.383,4.1,43.407,43.407,0,0,1-7.251,3.479,55.823,55.823,0,0,1-8.459,2.417A44.763,44.763,0,0,1,1051.86,398.685Zm-1.831-78.442a17.9,17.9,0,0,0-6.812,1.282,13.365,13.365,0,0,0-5.53,4.358,24.683,24.683,0,0,0-3.882,8.2,56.185,56.185,0,0,0-1.868,12.891h33.984q.146-1.465.183-3.076t.037-3a34.116,34.116,0,0,0-.879-7.837,20.043,20.043,0,0,0-2.783-6.592,14.018,14.018,0,0,0-4.944-4.541A15.309,15.309,0,0,0,1050.029,320.242ZM1092.275,397v-8.057l11.938-1.245V326.761l-10.254-3.223v-8.789l20.654-3h.366l3.442,2.93v4.395l-.073,9.155h.146q.586-.952,2.71-3.7a36.068,36.068,0,0,1,5.64-5.64,39.824,39.824,0,0,1,8.313-5.164,24.425,24.425,0,0,1,10.583-2.271,17.43,17.43,0,0,1,2.783.183,10.821,10.821,0,0,1,1.9.476v17.944a4.061,4.061,0,0,0-1.1-.476,17.412,17.412,0,0,0-1.941-.476q-1.135-.22-2.49-.4a21.048,21.048,0,0,0-2.82-.183,44.192,44.192,0,0,0-13.293,1.648,29.8,29.8,0,0,0-8.24,3.918V387.7l19.922,1.392V397Zm67.881-4.687V373.123h10.4l3,10.84a7.455,7.455,0,0,0,2.271,2.307,19.867,19.867,0,0,0,3.809,2.051,26.38,26.38,0,0,0,4.907,1.465,28.327,28.327,0,0,0,5.64.549,23.754,23.754,0,0,0,7.471-.989,12.238,12.238,0,0,0,4.614-2.6,8.345,8.345,0,0,0,2.307-3.772,15.925,15.925,0,0,0,.623-4.431,10.451,10.451,0,0,0-1.282-5.164,15.061,15.061,0,0,0-3.918-4.395,37.2,37.2,0,0,0-6.775-4.1q-4.138-2.014-9.851-4.211a67.374,67.374,0,0,1-10.254-4.834,30.3,30.3,0,0,1-7.178-5.75,20.689,20.689,0,0,1-4.211-7.1,27.148,27.148,0,0,1-1.355-8.9,18.146,18.146,0,0,1,2.307-9.119,21.939,21.939,0,0,1,6.372-6.995,30.574,30.574,0,0,1,9.595-4.5,43.575,43.575,0,0,1,11.975-1.575,58.692,58.692,0,0,1,8.35.549,69.374,69.374,0,0,1,6.885,1.318q3.076.769,5.383,1.575t3.7,1.245v18.311l-9.741-.073-3.223-9.448a9.053,9.053,0,0,0-4.138-3.552,17.733,17.733,0,0,0-8.167-1.648,21.6,21.6,0,0,0-6.519.732,12.352,12.352,0,0,0-4.395,2.2,8.64,8.64,0,0,0-2.49,3.259,9.969,9.969,0,0,0-.806,3.992,11.285,11.285,0,0,0,1.685,6.445,15.061,15.061,0,0,0,4.431,4.248,33.232,33.232,0,0,0,6.262,3.076q3.516,1.318,7.178,2.93,5.054,2.2,9.631,4.614a41.054,41.054,0,0,1,8.093,5.53,24.114,24.114,0,0,1,5.6,7.251,21.464,21.464,0,0,1,2.087,9.778,23.227,23.227,0,0,1-2.161,10.107,21.243,21.243,0,0,1-6.262,7.727,29.661,29.661,0,0,1-10,4.907,47.423,47.423,0,0,1-13.293,1.721,53.5,53.5,0,0,1-8.2-.659q-4.248-.659-8.167-1.611a71.65,71.65,0,0,1-7.1-2.087Q1162.061,393.191,1160.156,392.313Z" transform="translate(-5.493 -273.001)" fill="#fff"/>
</svg>
